<?xml version="1.0" encoding="UTF-8" standalone="no"?>
<svg
   xmlns:dc="http://purl.org/dc/elements/1.1/"
   xmlns:cc="http://creativecommons.org/ns#"
   xmlns:rdf="http://www.w3.org/1999/02/22-rdf-syntax-ns#"
   xmlns:svg="http://www.w3.org/2000/svg"
   xmlns="http://www.w3.org/2000/svg"
   id="svg162"
   xml:space="preserve"
   viewBox="0 0 550 445"
   height="445"
   width="550"
   version="1.1"><metadata
     id="metadata166"><rdf:RDF><cc:Work
         rdf:about=""><dc:format>image/svg+xml</dc:format><dc:type
           rdf:resource="http://purl.org/dc/dcmitype/StillImage" /></cc:Work></rdf:RDF></metadata><defs
     id="defs4"><style
       id="style2"
       type="text/css">@import url(&quot;https://fonts.googleapis.com/css2?family=Calistoga:wght@400&quot;);</style></defs><defs
     id="defs6" /><g
     id="background"
     transform="matrix(1 0 0 1 275.5 223)"><linearGradient
       y2="445"
       x2="0"
       y1="0"
       x1="0"
       gradientTransform="matrix(1 0 0 1 -275 -222.5)"
       gradientUnits="userSpaceOnUse"
       id="SVGID_1"><stop
         id="stop8"
         style="stop-color:rgb(3,189,215);stop-opacity: 1"
         offset="0%" /></linearGradient><rect
       id="rect11"
       height="445"
       width="550"
       ry="0"
       rx="0"
       y="-222.5"
       x="-275"
       style="stroke: none; stroke-width: 1; stroke-dasharray: none; stroke-linecap: butt; stroke-dashoffset: 0; stroke-linejoin: miter; stroke-miterlimit: 4; fill: url(#SVGID_1); fill-rule: nonzero; opacity: 1;" /></g><g
     id="g20"
     transform="matrix(1 0 0 1 275.5 223)"><linearGradient
       y2="445"
       x2="0"
       y1="0"
       x1="0"
       gradientTransform="matrix(1 0 0 1 -275 -222.5)"
       gradientUnits="userSpaceOnUse"
       id="linearGradient16"><stop
         id="stop14"
         style="stop-color:rgb(3,189,215);stop-opacity: 1"
         offset="0%" /></linearGradient><rect
       id="rect18"
       height="445"
       width="550"
       ry="0"
       rx="0"
       y="-222.5"
       x="-275"
       style="stroke: none; stroke-width: 1; stroke-dasharray: none; stroke-linecap: butt; stroke-dashoffset: 0; stroke-linejoin: miter; stroke-miterlimit: 4; fill: url(#SVGID_1); fill-rule: nonzero; opacity: 1;" /></g><g
     id="separator"
     transform="matrix(1 0 0 1 189.3 223)"><linearGradient
       y2="118"
       x2="5"
       y1="0"
       x1="0"
       gradientTransform="matrix(1 0 0 1 -2.5 -59)"
       gradientUnits="userSpaceOnUse"
       id="SVGID_98"><stop
         id="stop22"
         style="stop-color:rgb(255,255,255);stop-opacity: 1"
         offset="0%" /></linearGradient><rect
       id="rect25"
       height="118"
       width="5"
       ry="0"
       rx="0"
       y="-59"
       x="-2.5"
       style="stroke: none; stroke-width: 1; stroke-dasharray: none; stroke-linecap: butt; stroke-dashoffset: 0; stroke-linejoin: miter; stroke-miterlimit: 4; fill: url(#SVGID_98); fill-rule: nonzero; opacity: 1;" /></g><g
     id="icon"
     transform="matrix(0.23 0 0 0.23 99.8 222.5)"><g
       id="g151"
       style=""><g
         id="icon_piece"
         transform="matrix(1 0 0 1 -8.26 -155.24)"><path
           id="path28"
           stroke-linecap="round"
           d="m 268.381 21.43 l -6.206 166.549 c -0.285 7.651 -6.634 13.559 -14.29 13.541 c -0.048 0 -0.095 0 -0.143 0 s -0.096 0 -0.144 0 c -7.656 0.018 -14.005 -5.89 -14.29 -13.541 l -6.217 -166.549 c -0.01 -0.26 -0.01 -0.53 -0.01 -0.79 c 0 -11.35 9.21 -20.64 20.66 -20.64 c 11.71 0 21.08 9.73 20.64 21.43 z"
           transform=" translate(-247.74, -100.76)"
           style="stroke: none; stroke-width: 1; stroke-dasharray: none; stroke-linecap: butt; stroke-dashoffset: 0; stroke-linejoin: miter; stroke-miterlimit: 4; fill: rgb(255,243,112); fill-rule: nonzero; opacity: 1;" /></g><g
         id="g33"
         transform="matrix(1 0 0 1 -8.26 -199.29)"><path
           id="path31"
           stroke-linecap="round"
           d="m 228.178 50.558 l 0.533 14.281 c 0.382 10.232 8.787 18.329 19.026 18.329 c 10.239 0 18.645 -8.098 19.026 -18.33 l 0.532 -14.281 c 0.413 -11.088 -8.463 -20.301 -19.559 -20.301 c -11.095 -0.001 -19.972 9.214 -19.558 20.302 z"
           transform=" translate(-247.74, -56.71)"
           style="stroke: none; stroke-width: 1; stroke-dasharray: none; stroke-linecap: butt; stroke-dashoffset: 0; stroke-linejoin: miter; stroke-miterlimit: 4; fill: rgb(255,247,199); fill-rule: nonzero; opacity: 1;" /></g><g
         id="g37"
         transform="matrix(1 0 0 1 -8.26 148.72)"><path
           id="path35"
           stroke-linecap="round"
           d="m 267.491 465.49 c 0 10.84 -8.81 19.73 -19.75 19.73 c -11.23 0 -20.19 -9.34 -19.74 -20.55 l 5.151 -126.808 c 0.313 -7.715 6.723 -13.66 14.444 -13.642 h 0.145 h 0.144 c 7.721 -0.018 14.131 5.928 14.444 13.643 l 5.142 126.807 c 0.01 0.279 0.02 0.549 0.02 0.82 z"
           transform=" translate(-247.74, -404.72)"
           style="stroke: none; stroke-width: 1; stroke-dasharray: none; stroke-linecap: butt; stroke-dashoffset: 0; stroke-linejoin: miter; stroke-miterlimit: 4; fill: rgb(92,206,255); fill-rule: nonzero; opacity: 1;" /></g><g
         id="g41"
         transform="matrix(1 0 0 1 -8.26 142.83)"><path
           id="path39"
           stroke-linecap="round"
           d="m 231.898 368.741 l -2.295 56.506 c -0.419 10.304 7.822 18.887 18.135 18.887 c 10.312 0 18.553 -8.581 18.135 -18.885 l -2.291 -56.506 c -0.345 -8.5 -7.335 -15.212 -15.842 -15.212 c -8.507 -0.002 -15.497 6.711 -15.842 15.21 z"
           transform=" translate(-247.74, -398.83)"
           style="stroke: none; stroke-width: 1; stroke-dasharray: none; stroke-linecap: butt; stroke-dashoffset: 0; stroke-linejoin: miter; stroke-miterlimit: 4; fill: rgb(115,225,255); fill-rule: nonzero; opacity: 1;" /></g><g
         id="g45"
         transform="matrix(1 0 0 1 -122.3 -190.32)"><path
           id="path43"
           stroke-linecap="round"
           d="m 158.345 67.591 l -11.524 -21.972 c -5.607 -10.691 -18.984 -14.567 -29.438 -8.531 c -10.455 6.036 -13.786 19.559 -7.331 29.76 l 13.263 20.96 c 5.678 8.974 17.364 11.951 26.657 6.813 c 0.113 -0.063 0.227 -0.125 0.34 -0.188 c 9.531 -5.268 13.091 -17.198 8.033 -26.842 z"
           transform=" translate(-133.7, -65.68)"
           style="stroke: none; stroke-width: 1; stroke-dasharray: none; stroke-linecap: butt; stroke-dashoffset: 0; stroke-linejoin: miter; stroke-miterlimit: 4; fill: rgb(255,199,81); fill-rule: nonzero; opacity: 1;" /></g><g
         id="g49"
         transform="matrix(1 0 0 1 -67.78 -95.7)"><path
           id="path47"
           stroke-linecap="round"
           d="m 217.301 209.597 c -0.08 0.046 -0.161 0.092 -0.241 0.139 c -6.601 3.819 -15.018 1.873 -19.038 -4.607 l -43.481 -70.079 c -5.24 -8.44 -2.15 -19.56 6.69 -24.09 l 0.31 -0.16 c 8.28 -4.24 18.42 -1.04 22.76 7.18 l 38.548 72.908 c 3.546 6.708 1.037 14.939 -5.548 18.709 z"
           transform=" translate(-188.22, -160.3)"
           style="stroke: none; stroke-width: 1; stroke-dasharray: none; stroke-linecap: butt; stroke-dashoffset: 0; stroke-linejoin: miter; stroke-miterlimit: 4; fill: rgb(255,175,64); fill-rule: nonzero; opacity: 1;" /></g><g
         id="g53"
         transform="matrix(1 0 0 1 -77.83 -113.7)"><path
           id="path51"
           stroke-linecap="round"
           d="m 199.727 171.029 c 4.908 -4.908 6.043 -12.443 2.799 -18.58 l -18.225 -34.47 c -4.34 -8.22 -14.48 -11.42 -22.76 -7.18 l -0.31 0.16 c -8.84 4.53 -11.93 15.65 -6.69 24.09 l 20.558 33.134 c 5.375 8.663 17.42 10.055 24.628 2.846 z"
           transform=" translate(-178.17, -142.3)"
           style="stroke: none; stroke-width: 1; stroke-dasharray: none; stroke-linecap: butt; stroke-dashoffset: 0; stroke-linejoin: miter; stroke-miterlimit: 4; fill: rgb(255,199,81); fill-rule: nonzero; opacity: 1;" /></g><g
         id="g57"
         transform="matrix(1 0 0 1 -71.92 -103.68)"><path
           id="path55"
           stroke-linecap="round"
           d="m 173.572 130.296 c -9.114 4.022 -12.564 15.176 -7.312 23.641 l 8.611 13.878 c 5.302 8.545 16.24 10.608 23.902 4.094 c 5.705 -4.851 7.198 -12.943 3.753 -19.459 l -7.832 -14.814 c -4.024 -7.61 -13.246 -10.815 -21.122 -7.34 z"
           transform=" translate(-184.08, -152.32)"
           style="stroke: none; stroke-width: 1; stroke-dasharray: none; stroke-linecap: butt; stroke-dashoffset: 0; stroke-linejoin: miter; stroke-miterlimit: 4; fill: rgb(255,224,89); fill-rule: nonzero; opacity: 1;" /></g><g
         id="g61"
         transform="matrix(1 0 0 1 73.85 146.73)"><path
           id="path59"
           stroke-linecap="round"
           d="m 388.721 470.229 c 0 7.33 -3.79 14.47 -10.63 18.42 c -10.45 6.04 -23.83 2.16 -29.44 -8.53 l -76.048 -144.998 c -3.582 -6.829 -1.022 -15.184 5.665 -19.026 c 0.081 -0.047 0.163 -0.094 0.244 -0.141 c 6.689 -3.884 15.225 -1.957 19.361 4.579 l 87.548 138.355 c 2.24 3.531 3.3 7.462 3.3 11.341 z"
           transform=" translate(-329.85, -402.73)"
           style="stroke: none; stroke-width: 1; stroke-dasharray: none; stroke-linecap: butt; stroke-dashoffset: 0; stroke-linejoin: miter; stroke-miterlimit: 4; fill: rgb(255,175,64); fill-rule: nonzero; opacity: 1;" /></g><g
         id="g65"
         transform="matrix(1 0 0 1 94.92 184.52)"><path
           id="path63"
           stroke-linecap="round"
           d="m 385.421 458.89 l -38.492 -60.83 c -6.279 -9.923 -20.14 -11.462 -28.443 -3.159 c -5.67 5.67 -6.995 14.368 -3.271 21.469 l 33.436 63.75 c 5.61 10.69 18.99 14.57 29.44 8.53 c 6.84 -3.95 10.63 -11.09 10.63 -18.42 c 0 -3.88 -1.06 -7.811 -3.3 -11.34 z"
           transform=" translate(-350.92, -440.52)"
           style="stroke: none; stroke-width: 1; stroke-dasharray: none; stroke-linecap: butt; stroke-dashoffset: 0; stroke-linejoin: miter; stroke-miterlimit: 4; fill: rgb(255,199,81); fill-rule: nonzero; opacity: 1;" /></g><g
         id="g69"
         transform="matrix(1 0 0 1 -133.19 -66.33)"><path
           id="path67"
           stroke-linecap="round"
           d="m 194.796 231.864 c -0.139 0.236 -0.276 0.473 -0.411 0.712 c -3.74 6.574 -11.961 9.07 -18.659 5.556 l -116.315 -61.012 c -10.5 -5.51 -13.79 -18.97 -7 -28.7 l 0.26 -0.37 c 6.03 -8.64 17.79 -11.01 26.7 -5.37 l 110.936 70.194 c 6.412 4.057 8.328 12.446 4.489 18.99 z"
           transform=" translate(-122.81, -189.67)"
           style="stroke: none; stroke-width: 1; stroke-dasharray: none; stroke-linecap: butt; stroke-dashoffset: 0; stroke-linejoin: miter; stroke-miterlimit: 4; fill: rgb(254,37,95); fill-rule: nonzero; opacity: 1;" /></g><g
         id="g73"
         transform="matrix(1 0 0 1 -137.32 -68.15)"><path
           id="path71"
           stroke-linecap="round"
           d="m 154.298 190.09 l -50.04 -31.662 c -7.484 -4.735 -17.269 -3.511 -23.361 2.917 c -0.092 0.097 -0.184 0.194 -0.276 0.291 c -8.451 8.919 -6.036 23.444 4.845 29.151 l 52.439 27.506 c 6.583 3.453 14.672 1.978 19.612 -3.576 l 0.213 -0.239 c 6.626 -7.448 4.991 -19.059 -3.432 -24.388 z"
           transform=" translate(-118.68, -187.85)"
           style="stroke: none; stroke-width: 1; stroke-dasharray: none; stroke-linecap: butt; stroke-dashoffset: 0; stroke-linejoin: miter; stroke-miterlimit: 4; fill: rgb(252,112,155); fill-rule: nonzero; opacity: 1;" /></g><g
         id="g77"
         transform="matrix(1 0 0 1 68.69 51.44)"><path
           id="path75"
           stroke-linecap="round"
           d="m 347.801 321.94 l -0.19 0.27 c -4.71 6.81 -13.95 8.68 -20.94 4.26 l -21.25 -13.444 c -6.551 -4.145 -8.48 -12.701 -4.588 -19.405 c 0.084 -0.145 0.168 -0.29 0.251 -0.436 c 3.751 -6.584 11.984 -9.085 18.695 -5.565 l 22.482 11.79 c 8.23 4.33 10.83 14.88 5.54 22.53 z"
           transform=" translate(-324.69, -307.44)"
           style="stroke: none; stroke-width: 1; stroke-dasharray: none; stroke-linecap: butt; stroke-dashoffset: 0; stroke-linejoin: miter; stroke-miterlimit: 4; fill: rgb(254,37,95); fill-rule: nonzero; opacity: 1;" /></g><g
         id="g81"
         transform="matrix(1 0 0 1 168.67 109.65)"><path
           id="path79"
           stroke-linecap="round"
           d="m 376.352 335.294 c -0.067 0.097 -0.133 0.193 -0.2 0.29 c -5.818 8.438 -3.426 20.024 5.235 25.505 l 62.371 39.466 c 10.201 6.455 23.724 3.124 29.76 -7.331 c 6.036 -10.455 2.159 -23.831 -8.531 -29.438 l -65.34 -34.27 c -8.108 -4.254 -18.1 -1.761 -23.295 5.778 z"
           transform=" translate(-424.67, -365.65)"
           style="stroke: none; stroke-width: 1; stroke-dasharray: none; stroke-linecap: butt; stroke-dashoffset: 0; stroke-linejoin: miter; stroke-miterlimit: 4; fill: rgb(254,37,95); fill-rule: nonzero; opacity: 1;" /></g><g
         id="g85"
         transform="matrix(1 0 0 1 65.97 -119.79)"><path
           id="path83"
           stroke-linecap="round"
           d="m 369.891 91.39 l -72.018 113.815 c -4.136 6.536 -12.672 8.463 -19.361 4.579 c -0.081 -0.047 -0.162 -0.094 -0.244 -0.141 c -6.687 -3.842 -9.247 -12.196 -5.665 -19.026 l 62.588 -119.317 c 6.23 -11.89 22.21 -14.31 31.68 -4.81 l 0.31 0.31 c 6.54 6.56 7.66 16.77 2.71 24.59 z"
           transform=" translate(-321.97, -136.21)"
           style="stroke: none; stroke-width: 1; stroke-dasharray: none; stroke-linecap: butt; stroke-dashoffset: 0; stroke-linejoin: miter; stroke-miterlimit: 4; fill: rgb(255,175,64); fill-rule: nonzero; opacity: 1;" /></g><g
         id="g89"
         transform="matrix(1 0 0 1 66.08 -120.97)"><path
           id="path87"
           stroke-linecap="round"
           d="m 320.023 100.216 l -29.317 55.891 c -4.041 7.704 -1.111 17.439 6.564 21.536 c 0.091 0.049 0.183 0.098 0.274 0.147 c 7.431 3.977 16.663 1.601 21.17 -5.521 l 33.709 -53.272 c 5.238 -8.279 3.062 -19.18 -4.907 -24.879 c -0.132 -0.094 -0.263 -0.188 -0.395 -0.283 c -9.115 -6.532 -21.889 -3.549 -27.098 6.381 z"
           transform=" translate(-322.08, -135.03)"
           style="stroke: none; stroke-width: 1; stroke-dasharray: none; stroke-linecap: butt; stroke-dashoffset: 0; stroke-linejoin: miter; stroke-miterlimit: 4; fill: rgb(255,199,81); fill-rule: nonzero; opacity: 1;" /></g><g
         id="g93"
         transform="matrix(1 0 0 1 67.54 -124.27)"><path
           id="path91"
           stroke-linecap="round"
           d="m 309.662 119.969 l -3.826 7.294 c -4.17 7.95 -1.663 17.765 5.808 22.741 c 8.164 5.437 19.203 3.09 24.447 -5.199 l 4.424 -6.991 c 5.088 -8.04 2.897 -18.682 -4.974 -24.028 c -0.103 -0.07 -0.205 -0.139 -0.308 -0.209 c -8.732 -5.92 -20.67 -2.951 -25.571 6.392 z"
           transform=" translate(-323.54, -131.73)"
           style="stroke: none; stroke-width: 1; stroke-dasharray: none; stroke-linecap: butt; stroke-dashoffset: 0; stroke-linejoin: miter; stroke-miterlimit: 4; fill: rgb(255,224,89); fill-rule: nonzero; opacity: 1;" /></g><g
         id="g97"
         transform="matrix(1 0 0 1 -96.36 156.99)"><path
           id="path95"
           stroke-linecap="round"
           d="m 217.204 316.089 c 6.622 3.807 9.142 12.093 5.568 18.844 l -87.712 165.717 c -5.65 10.68 -19.04 14.53 -29.51 8.49 c -6.86 -3.96 -10.66 -11.14 -10.66 -18.5 c 0 -3.86 1.05 -7.78 3.26 -11.31 l 99.65 -158.811 c 4.074 -6.492 12.534 -8.419 19.161 -4.569 c 0.082 0.046 0.163 0.092 0.243 0.139 z"
           transform=" translate(-159.64, -412.99)"
           style="stroke: none; stroke-width: 1; stroke-dasharray: none; stroke-linecap: butt; stroke-dashoffset: 0; stroke-linejoin: miter; stroke-miterlimit: 4; fill: rgb(254,37,95); fill-rule: nonzero; opacity: 1;" /></g><g
         id="g101"
         transform="matrix(1 0 0 1 -73.19 118.04)"><path
           id="path99"
           stroke-linecap="round"
           d="m 217.204 316.089 c -0.081 -0.046 -0.161 -0.093 -0.242 -0.14 c -6.627 -3.85 -15.088 -1.923 -19.161 4.569 l -53.831 85.79 c -4.461 7.109 -3.411 16.365 2.539 22.284 c 0.092 0.092 0.184 0.183 0.277 0.275 c 8.559 8.515 22.912 6.341 28.56 -4.329 l 47.427 -89.606 c 3.573 -6.75 1.054 -15.036 -5.569 -18.843 z"
           transform=" translate(-182.81, -374.04)"
           style="stroke: none; stroke-width: 1; stroke-dasharray: none; stroke-linecap: butt; stroke-dashoffset: 0; stroke-linejoin: miter; stroke-miterlimit: 4; fill: rgb(252,112,155); fill-rule: nonzero; opacity: 1;" /></g><g
         id="g105"
         transform="matrix(1 0 0 1 -63.36 102.02)"><path
           id="path103"
           stroke-linecap="round"
           d="m 185.108 340.748 l -10.741 17.118 c -4.371 6.966 -2.692 16.104 3.852 21.085 c 0.089 0.068 0.178 0.136 0.267 0.204 c 7.794 5.94 19.056 3.448 23.64 -5.213 l 9.444 -17.843 c 3.435 -6.49 1.729 -14.51 -4.052 -19.039 l -0.235 -0.184 c -7.076 -5.546 -17.397 -3.743 -22.175 3.872 z"
           transform=" translate(-192.64, -358.02)"
           style="stroke: none; stroke-width: 1; stroke-dasharray: none; stroke-linecap: butt; stroke-dashoffset: 0; stroke-linejoin: miter; stroke-miterlimit: 4; fill: rgb(247,166,193); fill-rule: nonzero; opacity: 1;" /></g><g
         id="g109"
         transform="matrix(1 0 0 1 146.75 -84.07)"><path
           id="path107"
           stroke-linecap="round"
           d="m 506.641 125.7 c 0 7.63 -4.09 15.04 -11.34 18.89 l -175.568 93.277 c -6.72 3.57 -14.978 1.067 -18.77 -5.529 c -0.046 -0.08 -0.093 -0.161 -0.139 -0.241 c -3.836 -6.602 -1.909 -15.031 4.565 -19.08 l 168.562 -105.407 c 10.26 -6.41 23.78 -3.04 29.83 7.43 c 1.94 3.37 2.86 7.04 2.86 10.66 z"
           transform=" translate(-402.75, -171.93)"
           style="stroke: none; stroke-width: 1; stroke-dasharray: none; stroke-linecap: butt; stroke-dashoffset: 0; stroke-linejoin: miter; stroke-miterlimit: 4; fill: rgb(92,206,255); fill-rule: nonzero; opacity: 1;" /></g><g
         id="g113"
         transform="matrix(1 0 0 1 180.2 -102.81)"><path
           id="path111"
           stroke-linecap="round"
           d="m 503.781 115.04 c -6.05 -10.47 -19.57 -13.84 -29.83 -7.43 l -100.187 62.65 c -7.947 4.97 -10.378 15.422 -5.451 23.396 c 0.058 0.094 0.116 0.188 0.175 0.283 c 4.715 7.636 14.548 10.297 22.473 6.086 l 104.341 -55.435 c 7.25 -3.85 11.34 -11.26 11.34 -18.89 c -0.001 -3.62 -0.921 -7.29 -2.861 -10.66 z"
           transform=" translate(-436.2, -153.19)"
           style="stroke: none; stroke-width: 1; stroke-dasharray: none; stroke-linecap: butt; stroke-dashoffset: 0; stroke-linejoin: miter; stroke-miterlimit: 4; fill: rgb(115,225,255); fill-rule: nonzero; opacity: 1;" /></g><g
         id="g117"
         transform="matrix(1 0 0 1 195.08 -110.71)"><path
           id="path115"
           stroke-linecap="round"
           d="m 450.002 122.586 l -19.785 12.372 c -8.702 5.442 -11.646 16.728 -6.712 25.727 l 0.182 0.331 c 5.09 9.283 16.695 12.752 26.044 7.784 l 20.604 -10.947 c 9.665 -5.135 13.483 -17.052 8.567 -26.829 c -0.063 -0.126 -0.126 -0.252 -0.19 -0.377 c -5.34 -10.615 -18.635 -14.361 -28.71 -8.061 z"
           transform=" translate(-451.08, -145.29)"
           style="stroke: none; stroke-width: 1; stroke-dasharray: none; stroke-linecap: butt; stroke-dashoffset: 0; stroke-linejoin: miter; stroke-miterlimit: 4; fill: rgb(182,240,255); fill-rule: nonzero; opacity: 1;" /></g><g
         id="g121"
         transform="matrix(1 0 0 1 -148.06 88.93)"><path
           id="path119"
           stroke-linecap="round"
           d="m 194.796 293.875 c 3.839 6.544 1.923 14.933 -4.489 18.99 l -138.586 87.685 c -10.21 6.46 -23.73 3.13 -29.76 -7.33 c -1.94 -3.35 -2.85 -7 -2.85 -10.6 c 0 -7.63 4.12 -15.03 11.38 -18.83 l 145.235 -76.181 c 6.698 -3.513 14.919 -1.018 18.659 5.556 c 0.135 0.237 0.272 0.474 0.411 0.71 z"
           transform=" translate(-107.94, -344.93)"
           style="stroke: none; stroke-width: 1; stroke-dasharray: none; stroke-linecap: butt; stroke-dashoffset: 0; stroke-linejoin: miter; stroke-miterlimit: 4; fill: rgb(255,243,112); fill-rule: nonzero; opacity: 1;" /></g><g
         id="g125"
         transform="matrix(1 0 0 1 -96.94 58.44)"><path
           id="path123"
           stroke-linecap="round"
           d="m 194.799 293.881 c -0.155 -0.264 -0.308 -0.529 -0.459 -0.795 c -3.712 -6.549 -11.947 -8.974 -18.614 -5.477 l -45.531 23.883 c -9.869 5.177 -11.877 18.447 -3.975 26.306 c 0.085 0.085 0.17 0.169 0.255 0.254 c 5.463 5.434 13.953 6.372 20.464 2.253 l 43.368 -27.439 c 6.409 -4.056 8.332 -12.445 4.492 -18.985 z"
           transform=" translate(-159.06, -314.44)"
           style="stroke: none; stroke-width: 1; stroke-dasharray: none; stroke-linecap: butt; stroke-dashoffset: 0; stroke-linejoin: miter; stroke-miterlimit: 4; fill: rgb(255,247,199); fill-rule: nonzero; opacity: 1;" /></g><g
         id="g129"
         transform="matrix(1 0 0 1 -212.46 6.87)"><path
           id="path127"
           stroke-linecap="round"
           d="m 62.903 243.078 l -35.437 -1.438 c -12.062 -0.489 -22.108 9.157 -22.108 21.229 c 0 12.072 10.046 21.718 22.108 21.229 l 35.435 -1.438 c 9.875 -0.401 17.902 -8.099 18.715 -17.948 l 0.035 -0.426 c 0.918 -11.115 -7.605 -20.756 -18.748 -21.208 z"
           transform=" translate(-43.54, -262.87)"
           style="stroke: none; stroke-width: 1; stroke-dasharray: none; stroke-linecap: butt; stroke-dashoffset: 0; stroke-linejoin: miter; stroke-miterlimit: 4; fill: rgb(115,225,255); fill-rule: nonzero; opacity: 1;" /></g><g
         id="g133"
         transform="matrix(1 0 0 1 -107.85 6.87)"><path
           id="path131"
           stroke-linecap="round"
           d="m 186.391 262.87 v 0.144 c 0.018 7.721 -5.928 14.131 -13.643 14.444 l -45.887 1.862 c -9.22 0.37 -16.91 -6.99 -16.95 -16.22 v -0.34 c -0.03 -9.28 7.68 -16.72 16.96 -16.34 l 45.877 1.861 c 7.715 0.313 13.661 6.723 13.643 14.444 z"
           transform=" translate(-148.15, -262.87)"
           style="stroke: none; stroke-width: 1; stroke-dasharray: none; stroke-linecap: butt; stroke-dashoffset: 0; stroke-linejoin: miter; stroke-miterlimit: 4; fill: rgb(92,206,255); fill-rule: nonzero; opacity: 1;" /></g><g
         id="g137"
         transform="matrix(1 0 0 1 148.19 6.87)"><path
           id="path135"
           stroke-linecap="round"
           d="m 499.281 262.87 c 0 11.87 -9.88 21.35 -21.74 20.87 l -154.807 -6.282 c -7.715 -0.313 -13.661 -6.723 -13.643 -14.444 c 0 -0.048 0 -0.096 0 -0.144 s 0 -0.096 0 -0.145 c -0.018 -7.721 5.928 -14.131 13.643 -14.444 l 154.807 -6.281 c 0.29 -0.01 0.58 -0.02 0.86 -0.02 c 11.47 0 20.88 9.31 20.88 20.89 z"
           transform=" translate(-404.19, -262.87)"
           style="stroke: none; stroke-width: 1; stroke-dasharray: none; stroke-linecap: butt; stroke-dashoffset: 0; stroke-linejoin: miter; stroke-miterlimit: 4; fill: rgb(255,243,112); fill-rule: nonzero; opacity: 1;" /></g><g
         id="g141"
         transform="matrix(1 0 0 1 146.37 6.87)"><path
           id="path139"
           stroke-linecap="round"
           d="m 438.459 243.586 l -76.739 3.114 c -8.676 0.352 -15.527 7.488 -15.527 16.17 c 0 8.683 6.852 15.818 15.527 16.17 l 76.739 3.114 c 10.957 0.445 20.082 -8.318 20.082 -19.284 c 0 -10.966 -9.125 -19.729 -20.082 -19.284 z"
           transform=" translate(-402.37, -262.87)"
           style="stroke: none; stroke-width: 1; stroke-dasharray: none; stroke-linecap: butt; stroke-dashoffset: 0; stroke-linejoin: miter; stroke-miterlimit: 4; fill: rgb(255,247,199); fill-rule: nonzero; opacity: 1;" /></g><g
         id="g145"
         transform="matrix(1 0 0 1 -8.42 6.71)"><path
           id="path143"
           stroke-linecap="round"
           d="m 250.307 210.092 c 6.785 11.065 19.921 16.507 32.543 13.48 c 2.325 -0.558 4.42 1.537 3.862 3.862 c -3.027 12.622 2.414 25.758 13.48 32.543 c 2.039 1.25 2.039 4.212 0 5.462 c -11.065 6.785 -16.507 19.921 -13.48 32.543 c 0.558 2.325 -1.537 4.42 -3.862 3.862 c -12.622 -3.027 -25.758 2.414 -32.543 13.48 c -1.25 2.039 -4.212 2.039 -5.462 0 c -6.785 -11.065 -19.921 -16.507 -32.543 -13.48 c -2.325 0.558 -4.42 -1.537 -3.862 -3.862 c 3.027 -12.622 -2.414 -25.758 -13.48 -32.543 c -2.039 -1.25 -2.039 -4.212 0 -5.462 c 11.065 -6.785 16.507 -19.921 13.48 -32.543 c -0.558 -2.325 1.537 -4.42 3.862 -3.862 c 12.622 3.027 25.758 -2.414 32.543 -13.48 c 1.25 -2.038 4.212 -2.038 5.462 0 z"
           transform=" translate(-247.58, -262.71)"
           style="stroke: none; stroke-width: 1; stroke-dasharray: none; stroke-linecap: butt; stroke-dashoffset: 0; stroke-linejoin: miter; stroke-miterlimit: 4; fill: rgb(255,243,112); fill-rule: nonzero; opacity: 1;" /></g><g
         id="g149"
         transform="matrix(1 0 0 1 12.67 14.16)"><path
           id="path147"
           stroke-linecap="round"
           d="m 301.722 262.706 c 0 1.055 -0.511 2.11 -1.532 2.733 c -9.025 5.534 -14.305 15.292 -14.305 25.552 c 0 2.319 0.267 4.663 0.827 6.992 c 0.063 0.258 0.092 0.511 0.092 0.763 c 0 1.994 -1.887 3.593 -3.953 3.097 c -2.329 -0.559 -4.673 -0.827 -6.992 -0.827 c -10.255 0 -20.014 5.281 -25.552 14.305 c -0.627 1.016 -1.678 1.527 -2.728 1.527 c -1.055 0 -2.11 -0.511 -2.733 -1.527 c -2.387 -3.895 -5.567 -7.094 -9.229 -9.467 c 23.301 -10.216 39.58 -33.492 39.58 -60.566 c 0 -7.406 -1.22 -14.529 -3.462 -21.176 c 3.632 0.506 7.396 0.35 11.116 -0.54 c 0.258 -0.063 0.511 -0.092 0.763 -0.092 c 1.994 0 3.593 1.887 3.097 3.953 c -0.559 2.329 -0.827 4.673 -0.827 6.992 c 0 10.255 5.281 20.014 14.305 25.552 c 1.022 0.628 1.533 1.679 1.533 2.729 z"
           transform=" translate(-268.67, -270.16)"
           style="stroke: none; stroke-width: 1; stroke-dasharray: none; stroke-linecap: butt; stroke-dashoffset: 0; stroke-linejoin: miter; stroke-miterlimit: 4; fill: rgb(255,224,89); fill-rule: nonzero; opacity: 1;" /></g></g></g><g
     id="logo-name"
     style=""
     transform="matrix(2.55 0 0 2.55 362.78 223.78)"><linearGradient
       y2="33.89999999999999"
       x2="0"
       y1="0"
       x1="0"
       gradientTransform="matrix(1 0 0 1 -53.97 -16.95)"
       gradientUnits="userSpaceOnUse"
       id="SVGID_97"><stop
         id="stop154"
         style="stop-color:rgb(0,0, 0);stop-opacity: 1"
         offset="0%" /></linearGradient><text
       id="text159"
       style="stroke: none; stroke-width: 1; stroke-dasharray: none; stroke-linecap: butt; stroke-dashoffset: 0; stroke-linejoin: miter; stroke-miterlimit: 4; fill: url(#SVGID_97); fill-rule: nonzero; opacity: 1; white-space: pre;"
       font-weight="normal"
       font-style="normal"
       font-size="30"
       font-family="Calistoga"
       xml:space="preserve"><tspan
         id="tspan157"
         y="9.42"
         x="-53.97">Hyelper</tspan></text>
</g></svg>