<?xml version="1.0"?>
<svg xmlns="http://www.w3.org/2000/svg" xmlns:xlink="http://www.w3.org/1999/xlink" version="1.1" id="Capa_1" x="0px" y="0px" viewBox="0 0 512.002 512.002" style="enable-background:new 0 0 512.002 512.002;" xml:space="preserve" width="30px" height="30px"><g><g>
	<g>
		<path d="M387.487,466.168h-32.494V132.842h6.218c4.329,0,7.837-3.509,7.837-7.837c0-4.328-3.508-7.837-7.837-7.837h-6.218V39.396    c0-4.328-3.508-7.837-7.837-7.837c-4.329,0-7.837,3.509-7.837,7.837v77.773h-1.395V7.837c0-4.328-3.508-7.837-7.837-7.837    c-4.329,0-7.837,3.509-7.837,7.837v109.332h-1.242V39.396c0-2.695-1.385-5.201-3.666-6.634c-2.281-1.436-5.141-1.596-7.567-0.428    c-0.406,0.196-10.114,4.903-24.755,15.21c-0.005,0.004-0.01,0.007-0.017,0.012c-0.042,0.029-0.081,0.055-0.122,0.085    c-18.949,13.354-47.101,36.808-73.616,72.712c-5.983,8.106-11.596,16.483-16.866,25.098c-0.188,0.272-0.357,0.557-0.511,0.852    c-4.857,7.992-9.408,16.196-13.645,24.608c-0.148,0.263-0.286,0.535-0.404,0.816c-4.018,8.027-7.763,16.233-11.21,24.624    c-0.102,0.224-0.193,0.452-0.275,0.688c-3.322,8.131-6.386,16.422-9.168,24.881c-0.03,0.087-0.063,0.172-0.089,0.261    c-2.647,8.069-5.023,16.296-7.173,24.651c-0.109,0.329-0.198,0.668-0.262,1.015c-1.099,4.314-2.156,8.653-3.122,13.041    c-2.672,12.142-4.823,24.565-6.466,37.251c-0.003,0.027-0.007,0.053-0.01,0.081c-1.05,8.123-1.891,16.355-2.519,24.692    c-0.027,0.23-0.042,0.464-0.049,0.699c-0.594,8.026-0.998,16.147-1.201,24.365c-0.022,0.237-0.037,0.477-0.037,0.72    c0,0.113,0.013,0.223,0.017,0.333c-0.18,7.93-0.177,15.948,0.006,24.051c-0.009,0.155-0.023,0.307-0.023,0.464    c0,0.291,0.019,0.576,0.049,0.858c0.196,7.87,0.575,15.825,1.112,23.852c-0.001,0.047-0.007,0.092-0.007,0.139    c0,0.388,0.038,0.765,0.092,1.138c0.549,7.926,1.262,15.926,2.142,24c0.016,0.439,0.06,0.87,0.144,1.288    c0.879,7.908,1.911,15.882,3.107,23.927c0.028,0.338,0.075,0.67,0.144,0.995c0.817,5.445,1.716,10.923,2.678,16.43h-23.202    c-20.951,0-37.996,17.045-37.996,37.996c0,4.328,3.508,7.837,7.837,7.837h323.284c4.329,0,7.837-3.509,7.837-7.837    C425.483,483.212,408.439,466.168,387.487,466.168z M321.009,132.842h18.311v83.599h-18.311V132.842z M321.009,232.115h18.311    v127.31h-18.311V232.115z M321.009,375.099h18.311v91.069h-18.311V375.099z M297.234,58.149c2.985-2.033,5.708-3.794,8.101-5.281    v64.301h-8.101V58.149z M305.335,132.842v9.225h-32.147v-9.225H305.335z M178.755,406.227c0.285,3.118,0.586,6.175,0.9,9.175    h-23.067c-0.3-3.084-0.57-6.14-0.819-9.175H178.755z M154.703,390.554c-0.166-3.08-0.315-6.144-0.427-9.175h22.637    c0.176,3.1,0.37,6.159,0.58,9.175H154.703z M181.464,431.076c0.398,3.147,0.806,6.208,1.219,9.175h-23.164    c-0.426-3.081-0.824-6.138-1.2-9.175H181.464z M305.335,455.924v10.243H163.643c-0.614-3.438-1.207-6.857-1.76-10.243H305.335z     M273.188,440.251v-9.175h32.147v9.175H273.188z M273.188,415.402v-9.175h32.147v9.175H273.188z M273.188,390.554v-9.175h32.147    v9.175H273.188z M273.188,365.705v-9.175h32.147v9.175H273.188z M273.188,340.856v-9.175h32.147v9.175H273.188z M273.188,316.007    v-9.175h32.147v9.175H273.188z M273.188,291.159v-9.175h32.147v9.175H273.188z M273.188,266.31v-9.175h32.147v9.175H273.188z     M273.188,241.462v-9.175h32.147v9.175H273.188z M273.188,216.614v-9.175h32.147v9.175H273.188z M273.188,191.765v-9.175h32.147    v9.175H273.188z M273.188,166.916v-9.175h32.147v9.175H273.188z M281.561,69.696v47.473h-16.21h-31.773    C250.49,96.449,267.48,80.851,281.561,69.696z M237.215,132.842h20.299v39.457h-19.863c-4.329,0-7.837,3.509-7.837,7.837    s3.508,7.837,7.837,7.837h19.863v32.328h-34.922c-4.329,0-7.837,3.509-7.837,7.837c0,4.328,3.508,7.837,7.837,7.837h34.922v32.328    H211.55c-4.329,0-7.837,3.509-7.837,7.837c0,4.328,3.508,7.837,7.837,7.837h45.965v32.327h-46.969    c-4.329,0-7.837,3.509-7.837,7.837c0,4.328,3.508,7.837,7.837,7.837h46.969v32.328h-43.957c-4.329,0-7.837,3.509-7.837,7.837    s3.508,7.837,7.837,7.837h43.957v32.328h-34.922c-4.329,0-7.837,3.509-7.837,7.837c0,4.328,3.508,7.837,7.837,7.837h34.922v12.271    h-59.003v0C188.265,368.456,181.15,238.963,237.215,132.842z M205.33,157.741h3.067c-1.237,3.048-2.43,6.106-3.584,9.175h-4.693    C201.838,163.778,203.576,160.718,205.33,157.741z M192.056,182.59h7.241c-1.002,3.052-1.963,6.112-2.889,9.175h-8.617    C189.188,188.641,190.611,185.584,192.056,182.59z M181.229,207.438h10.773c-0.797,3.056-1.565,6.115-2.295,9.175h-11.924    C178.905,213.501,180.054,210.442,181.229,207.438z M172.525,232.287h13.734c-0.618,3.06-1.197,6.119-1.752,9.175H169.8    C170.68,238.359,171.587,235.298,172.525,232.287z M165.705,257.135h16.211c-0.457,3.065-0.89,6.124-1.289,9.175h-17.003    C164.289,263.212,164.983,260.152,165.705,257.135z M160.574,281.983h18.237c-0.312,3.07-0.596,6.128-0.854,9.175h-18.884    C159.544,288.063,160.045,285.006,160.574,281.983z M156.985,306.832h19.853c-0.178,3.073-0.335,6.135-0.464,9.175h-20.36    C156.307,312.914,156.636,309.861,156.985,306.832z M154.807,331.681h21.1c-0.053,3.081-0.081,6.139-0.091,9.175h-21.487    C154.457,337.764,154.623,334.713,154.807,331.681z M153.937,356.53h22.015c0.064,3.09,0.148,6.147,0.251,9.175h-22.278    C153.9,362.618,153.906,359.562,153.937,356.53z M103.619,496.327c3.181-8.454,11.351-14.485,20.903-14.485h262.965    c9.552,0,17.722,6.031,20.903,14.485H103.619z" data-original="#000000" class="active-path" data-old_color="#000000" fill="#515151"/>
	</g>
</g></g> </svg>
