<?xml version="1.0"?>
<svg xmlns="http://www.w3.org/2000/svg" id="Capa_1" enable-background="new 0 0 509.368 509.368" height="512px" viewBox="0 0 509.368 509.368" width="512px"><g><g><path d="m501.868 452.859h-5.789v-32.84c0-4.142-3.357-7.5-7.5-7.5h-11.588v-18.526c0-3.86-2.917-7.036-6.666-7.451l1.063-8.5c4.377-35.027 4.278-142.881-.161-177.544l-.894-6.981c3.746-.419 6.659-3.593 6.659-7.45v-18.98h19.13c3.341 0 6.278-2.21 7.205-5.419.199-.689.296-1.39.296-2.082-.001-2.528-1.283-4.946-3.503-6.345l-240.797-151.737c-2.443-1.54-5.554-1.54-7.997 0l-240.795 151.737c-2.219 1.398-3.502 3.817-3.502 6.345 0 .692.096 1.392.295 2.082.927 3.209 3.865 5.419 7.206 5.419h17.847v18.98c0 4.142 3.358 7.5 7.5 7.5h.63l-.888 6.931c-4.44 34.666-4.537 142.52-.16 177.544l1.056 8.452h-.639c-4.142 0-7.5 3.358-7.5 7.5v18.526h-11.587c-4.142 0-7.5 3.358-7.5 7.5v32.84h-5.789c-4.142 0-7.5 3.358-7.5 7.5v41.16c0 4.142 3.358 7.5 7.5 7.5h494.368c4.143 0 7.5-3.358 7.5-7.5v-41.16c0-4.143-3.358-7.501-7.5-7.501zm-122.078-40.34v-18.526c0-3.86-2.916-7.036-6.666-7.451l1.062-8.5c.107-.854.21-1.765.311-2.704h38.678c.102.939.205 1.849.311 2.704l1.056 8.452h-.638c-4.143 0-7.5 3.358-7.5 7.5v18.526h-26.614zm-92.276 0v-18.526c0-3.86-2.916-7.036-6.666-7.451l1.062-8.5c.107-.854.21-1.765.311-2.704h33.755c.101.939.205 1.849.311 2.704l1.056 8.452h-.638c-4.143 0-7.5 3.358-7.5 7.5v18.526h-21.691zm-92.276 0v-18.526c0-3.86-2.917-7.036-6.666-7.451l1.062-8.5c.107-.854.21-1.765.311-2.704h33.755c.101.935.205 1.846.312 2.704l1.056 8.451h-.638c-4.142 0-7.5 3.358-7.5 7.5v18.526zm-92.277 0v-18.526c0-3.86-2.917-7.036-6.666-7.451l1.062-8.5c.107-.854.21-1.765.312-2.704h33.755c.101.939.205 1.849.312 2.704l1.056 8.452h-.638c-4.142 0-7.5 3.358-7.5 7.5v18.526h-21.693zm-55.584-233.952v-11.114h40.584v10.99c-.064-.002-.127-.009-.191-.009h-38.724c-.48 0-.95.046-1.407.133zm169.553-11.481v18.98c0 4.142 3.358 7.5 7.5 7.5h.63l-.888 6.93c-.117.915-.231 1.899-.344 2.925h-34.011c-.112-1.021-.226-2.004-.344-2.924l-.894-6.981c3.745-.419 6.658-3.593 6.658-7.45v-18.98zm204.476 11.481v-11.114h40.585v10.99c-.064-.002-.127-.009-.191-.009h-38.725c-.48 0-.95.046-1.407.133zm33.81 15 1.131 8.836c4.242 33.117 4.338 140.308.155 173.778l-1.289 10.312h-25.553l-1.288-10.312c-4.183-33.468-4.087-140.659.154-173.779l1.131-8.836h25.559zm-43.249 166.771h-36.26c2.317-37.883 2.265-104.05-.106-141.916h36.472c-2.37 37.865-2.422 104.033-.106 141.916zm-173.071 15.843c-2.275-18.204-3.485-59.953-3.012-103.886.044-4.142-3.277-7.536-7.419-7.58-.027-.001-.055-.001-.082-.001-4.104 0-7.454 3.305-7.498 7.419-.311 28.889.114 63.885 1.602 88.204h-31.332c2.317-37.883 2.265-104.05-.107-141.916h31.548c-.415 6.593-.768 14.174-1.049 22.605-.138 4.14 3.106 7.608 7.246 7.746 4.137.137 7.608-3.106 7.746-7.246.576-17.251 1.444-30.779 2.514-39.125l1.131-8.836h25.558l1.131 8.836c4.241 33.12 4.337 140.311.154 173.779l-1.288 10.311h-25.553zm-99.242-197.614v-11.114h40.584v10.99c-.064-.002-.127-.009-.191-.009h-38.725c-.48 0-.95.046-1.407.133zm92.276 0v-11.114h40.584v10.99c-.064-.002-.126-.009-.19-.009h-38.725c-.48 0-.95.046-1.407.133zm51.395 39.854h31.549c-2.371 37.866-2.424 104.033-.106 141.916h-31.337c2.317-37.882 2.265-104.05-.106-141.916zm40.882-39.854v-11.114h40.584v10.99c-.064-.002-.126-.009-.19-.009h-38.725c-.48 0-.95.046-1.407.133zm6.966 197.614c-4.184-33.469-4.088-140.659.154-173.779l1.131-8.836h25.558l1.131 8.836c4.241 33.12 4.337 140.311.154 173.779l-1.288 10.311h-25.553zm-14.466-182.614h.63l-.888 6.931c-.118.92-.232 1.903-.344 2.924h-34.011c-.112-1.021-.226-2.004-.344-2.924l-.894-6.981c3.745-.419 6.658-3.593 6.658-7.45v-18.98h21.692v18.98c.001 4.142 3.358 7.5 7.501 7.5zm-143.244 0 1.131 8.836c4.242 33.12 4.337 140.311.155 173.779l-1.289 10.312h-25.553l-1.289-10.312c-4.183-33.469-4.087-140.659.155-173.779l1.131-8.836zm-43.248 166.771h-31.337c2.317-37.883 2.265-104.05-.106-141.916h31.549c-2.371 37.865-2.424 104.033-.106 141.916zm9.439 52.181v-10.939c.539.123 1.095.195 1.669.195h38.725c.064 0 .127-.007.191-.009v10.753zm92.276 0v-10.939c.539.123 1.096.195 1.669.195h38.725c.064 0 .127-.007.19-.009v10.753zm92.277 0v-10.939c.539.123 1.096.195 1.669.195h38.724c.064 0 .127-.007.19-.009v10.753zm97.199 0v-10.939c.539.123 1.096.195 1.669.195h38.725c.065 0 .127-.007.191-.009v10.753zm-7.5-218.952h.63l-.888 6.931c-.118.92-.232 1.903-.344 2.924h-38.934c-.112-1.021-.226-2.004-.344-2.924l-.894-6.981c3.745-.419 6.658-3.593 6.658-7.45v-18.98h26.615v18.98c.001 4.142 3.358 7.5 7.501 7.5zm-158.581-176.853 214.826 135.372h-429.651zm-130.671 150.372v18.98c0 4.142 3.358 7.5 7.5 7.5h.629l-.888 6.931c-.118.92-.232 1.903-.344 2.924h-34.01c-.112-1.021-.226-2.004-.344-2.924l-.894-6.981c3.745-.419 6.658-3.593 6.658-7.45v-18.98zm-70.311 209.095c-4.183-33.469-4.087-140.659.155-173.779l1.131-8.836h25.558l1.131 8.836c4.242 33.12 4.337 140.311.155 173.779l-1.289 10.312h-25.552zm-6.966 25.398c.539.123 1.096.195 1.669.195h38.725c.064 0 .127-.007.191-.009v10.753h-40.585zm446.991 92.44h-479.368v-26.16h91.899c4.142 0 7.5-3.358 7.5-7.5s-3.358-7.5-7.5-7.5h-78.61v-25.34h452.79v25.34h-344.18c-4.142 0-7.5 3.358-7.5 7.5s3.358 7.5 7.5 7.5h357.468v26.16z" data-original="#000000" class="active-path" data-old_color="#000000" fill="#01BBBC"/><path d="m390.847 121.684-131.523-82.88c-2.443-1.54-5.553-1.54-7.997 0l-131.525 82.88c-2.826 1.781-4.134 5.217-3.207 8.426.927 3.21 3.865 5.419 7.206 5.419h263.048c3.341 0 6.278-2.21 7.205-5.419.928-3.21-.38-6.645-3.207-8.426zm-241.077-1.155 105.555-66.516 105.554 66.516z" data-original="#000000" class="active-path" data-old_color="#000000" fill="#01BBBC"/></g></g> </svg>
