<?xml version="1.0"?>
<svg xmlns="http://www.w3.org/2000/svg" xmlns:xlink="http://www.w3.org/1999/xlink" version="1.1" id="Capa_1" x="0px" y="0px" viewBox="0 0 511.999 511.999" style="enable-background:new 0 0 511.999 511.999;" xml:space="preserve" width="512px" height="512px"><g><g>
	<g>
		<path d="M115.068,275.452c-22.621,0-41.025,18.404-41.025,41.025c0,22.621,18.404,41.025,41.025,41.025    c22.621,0,41.025-18.404,41.025-41.025C156.093,293.856,137.69,275.452,115.068,275.452z M115.069,342.294    c-14.236,0-25.817-11.581-25.817-25.817c0-14.236,11.581-25.817,25.817-25.817c14.236,0,25.817,11.581,25.817,25.817    C140.886,330.712,129.305,342.294,115.069,342.294z" data-original="#000000" class="active-path" data-old_color="#000000" fill="#01BBBC"/>
	</g>
</g><g>
	<g>
		<path d="M396.931,275.452c-22.621,0-41.025,18.404-41.025,41.025c0,22.621,18.404,41.025,41.025,41.025    c22.621,0,41.025-18.404,41.025-41.025C437.956,293.856,419.552,275.452,396.931,275.452z M396.932,342.294    c-14.236,0-25.817-11.581-25.817-25.817c0-14.236,11.581-25.817,25.817-25.817c14.236,0,25.817,11.581,25.817,25.817    C422.749,330.712,411.167,342.294,396.932,342.294z" data-original="#000000" class="active-path" data-old_color="#000000" fill="#01BBBC"/>
	</g>
</g><g>
	<g>
		<path d="M471.355,382.906v-95.833c0-23.726-17.504-43.44-40.277-46.908l-0.727-11.494h8.87c12.403,0,22.495-10.091,22.495-22.495    v-40.914c0-12.404-10.091-22.495-22.495-22.495h-14.302l-1.934-30.599c-1.502-23.755-21.324-42.363-45.127-42.363H134.142    c-23.803,0-43.624,18.608-45.127,42.363l-1.053,16.665c-0.004,0.053-0.007,0.104-0.01,0.156l-0.871,13.779H72.784    c-12.403,0-22.495,10.091-22.495,22.495v40.914c0,12.404,10.091,22.495,22.495,22.495h8.865l-0.727,11.494    c-22.772,3.468-40.277,23.182-40.277,46.908v36.538c0,4.199,3.404,7.604,7.604,7.604c4.2,0,7.604-3.405,7.604-7.604v-36.538    c0-17.778,14.464-32.242,32.242-32.242h66.739c4.2,0,7.604-3.405,7.604-7.604s-3.404-7.604-7.604-7.604h-38.683    c4.055-13.229,16.343-22.729,30.817-22.729h218.061c14.475,0,26.763,9.5,30.817,22.729h-38.682c-4.2,0-7.604,3.405-7.604,7.604    s3.404,7.604,7.604,7.604h66.722c0.003,0,0.007,0,0.01,0c0.004,0,0.008,0,0.011,0c17.776,0.003,32.237,14.466,32.237,32.242    v91.653H55.854v-29.099c0-4.199-3.404-7.604-7.604-7.604c-4.2,0-7.604,3.405-7.604,7.604v33.279    c-12.021,6.23-20.26,18.783-20.26,33.231c0,20.629,16.783,37.411,37.411,37.411h273.608c4.2,0,7.604-3.405,7.604-7.604    s-3.404-7.604-7.604-7.604H57.797c-12.243,0-22.204-9.96-22.204-22.204c0-12.243,9.96-22.204,22.204-22.204h396.406    c12.242,0,22.203,9.96,22.203,22.204c0,12.243-9.96,22.204-22.203,22.204h-96.781c-4.2,0-7.604,3.405-7.604,7.604    s3.404,7.604,7.604,7.604h96.781c20.629,0,37.41-16.782,37.41-37.411C491.614,401.689,483.376,389.136,471.355,382.906z     M82.611,213.462h-9.827v0.001c-4.018,0-7.287-3.269-7.287-7.287v-40.914c0-4.018,3.269-7.287,7.287-7.287h13.335L82.611,213.462z     M411.527,239.625c-4.405-21.775-23.594-37.939-46.497-37.939H146.969c-22.904,0-42.094,16.162-46.497,37.937h-4.277L103,131.992    c5.536-7.565,14.461-12.028,24.239-12.028h33.506c4.2,0,7.604-3.405,7.604-7.604c0-4.199-3.404-7.604-7.604-7.604H127.24    c-8.21,0-16.025,2.138-22.796,6.017c2.088-14.621,14.698-25.758,29.698-25.758h243.717c14.999,0,27.607,11.135,29.698,25.755    c-6.77-3.877-14.581-6.013-22.79-6.013H186.762c-4.2,0-7.604,3.405-7.604,7.604s3.404,7.604,7.604,7.604h198.004    c9.779,0,18.702,4.462,24.233,12.025l6.805,107.636H411.527z M425.882,157.978h13.34v-0.001c4.018,0,7.287,3.269,7.287,7.287    v40.914c0,4.018-3.269,7.287-7.287,7.287h-9.832L425.882,157.978z" data-original="#000000" class="active-path" data-old_color="#000000" fill="#01BBBC"/>
	</g>
</g><g>
	<g>
		<path d="M295.931,275.753h-79.862c-22.02,0-39.935,17.914-39.935,39.935v36.318c0,4.199,3.404,7.604,7.604,7.604h144.523    c4.2,0,7.604-3.405,7.604-7.604v-36.318C335.865,293.668,317.951,275.753,295.931,275.753z M208.466,344.402h-17.123v-28.713    c0-10.982,7.198-20.31,17.123-23.526V344.402z M248.396,344.402h-24.723v-53.44h0.001h24.722V344.402z M288.327,344.402h-24.723    v-53.44h24.723V344.402z M320.657,344.403h-17.122v-52.238c9.924,3.215,17.122,12.542,17.122,23.525V344.403z" data-original="#000000" class="active-path" data-old_color="#000000" fill="#01BBBC"/>
	</g>
</g><g>
	<g>
		<path d="M309.202,0H202.799c-13.706,0-24.857,11.15-24.857,24.857v30.18c0,4.198,3.405,7.603,7.604,7.603    c4.2,0,7.604-3.405,7.604-7.604V24.857c0-5.321,4.329-9.649,9.649-9.649h106.404c5.32,0,9.649,4.328,9.649,9.649v30.18    c0,4.199,3.404,7.604,7.604,7.604s7.604-3.405,7.604-7.604v-30.18C334.059,11.15,322.909,0,309.202,0z" data-original="#000000" class="active-path" data-old_color="#000000" fill="#01BBBC"/>
	</g>
</g><g>
	<g>
		<path d="M128.161,462.893c-4.2,0-7.604,3.405-7.604,7.604v22.622c0,2.025-1.648,3.672-3.672,3.672H80.986    c-2.025,0-3.672-1.648-3.672-3.672v-22.622c0-4.199-3.404-7.604-7.604-7.604c-4.2,0-7.604,3.405-7.604,7.604v22.622    c0,10.41,8.47,18.88,18.88,18.88h35.898c10.411,0,18.88-8.47,18.88-18.88v-22.622    C135.765,466.297,132.361,462.893,128.161,462.893z" data-original="#000000" class="active-path" data-old_color="#000000" fill="#01BBBC"/>
	</g>
</g><g>
	<g>
		<path d="M442.291,462.893c-4.2,0-7.604,3.405-7.604,7.604v22.622c0,2.025-1.648,3.672-3.672,3.672h-35.898    c-2.025,0-3.672-1.648-3.672-3.672v-22.622c0-4.199-3.404-7.604-7.604-7.604c-4.2,0-7.604,3.405-7.604,7.604v22.622    c0,10.41,8.47,18.88,18.88,18.88h35.898c10.411,0,18.88-8.47,18.88-18.88v-22.622C449.895,466.297,446.49,462.893,442.291,462.893    z" data-original="#000000" class="active-path" data-old_color="#000000" fill="#01BBBC"/>
	</g>
</g></g> </svg>
