<?xml version="1.0"?>
<svg xmlns="http://www.w3.org/2000/svg" xmlns:xlink="http://www.w3.org/1999/xlink" version="1.1" id="Capa_1" x="0px" y="0px" viewBox="0 0 512 512" style="enable-background:new 0 0 512 512;" xml:space="preserve" width="30px" height="30px"><g><g>
	<g>
		<path d="M353.625,319.501h-44.408c-0.025,0-0.05,0-0.074,0h-1.265V301.47c24.797-15.964,41.815-43.004,44.018-74.073    c20.321-3.414,35.856-21.121,35.856-42.397v-17.747c0-11.313-7.478-20.913-17.751-24.115V78.501    c0-33.498-27.252-60.75-60.75-60.75h-10.378C287.878,6.788,272.719,0,256.003,0c-16.717,0-31.876,6.788-42.871,17.751h-10.38    c-33.498,0-60.75,27.252-60.75,60.75v64.636c-10.273,3.202-17.752,12.802-17.752,24.115V185c0,21.239,15.481,38.919,35.749,42.377    c2.2,31.123,19.266,58.205,44.127,74.164v17.96h-1.281c-0.015,0-0.029,0-0.044,0h-44.073c-48.178,0-87.374,39.196-87.374,87.348    l-0.353,97.624c-0.007,1.994,0.78,3.908,2.188,5.32c1.407,1.413,3.318,2.207,5.313,2.207h53.249c4.143,0,7.5-3.358,7.5-7.5    c0-4.142-3.357-7.5-7.5-7.5H86.029l0.325-90.124c0-39.908,32.467-72.375,72.374-72.375h16.667l-15.42,61.681    c-0.56,2.24-0.057,4.614,1.365,6.435c1.421,1.82,3.602,2.884,5.911,2.884l27.854-0.001l-22.623,12.569    c-2.058,1.143-3.459,3.186-3.785,5.516c-0.326,2.33,0.46,4.679,2.124,6.343L237.894,497h-72.793c-4.143,0-7.5,3.358-7.5,7.5    c0,4.142,3.357,7.5,7.5,7.5H433.5c4.143,0,7.5-3.358,7.5-7.5v-97.624C441,358.697,401.804,319.501,353.625,319.501z     M314.831,334.501h6.313l14,55.999l-37.112-0.001L314.831,334.501z M273.75,142h-35.497h-63.501v-10.249v-0.001    c0-25.227,20.523-45.75,45.75-45.75h70.999c24.877,0,45.166,19.962,45.724,44.707c-0.048,0.342-0.081,0.689-0.081,1.044V142    H273.75z M337.144,157v29.402c-0.687,4.99-4.968,8.849-10.144,8.849h-35.5c-5.652,0-10.25-4.599-10.25-10.251v-28H337.144z     M372.752,167.253V185c0,12.881-8.746,23.752-20.608,27.004v-24.729c0.067-0.75,0.107-1.507,0.107-2.274l-0.001-28h10.25    C368.152,157.001,372.752,161.6,372.752,167.253z M159.751,185.001v26.972c-11.808-3.288-20.502-14.131-20.502-26.973v-17.747    c0-5.653,4.599-10.252,10.252-10.252h10.25V185.001z M159.752,131.751c0,0,0,0,0,0.001v0.001V142h-2.75V78.501    c0-25.011,20.177-45.387,45.107-45.733c-4.369,8.381-6.854,17.893-6.854,27.98c0,4.142,3.357,7.5,7.5,7.5s7.5-3.358,7.5-7.5    c0-25.225,20.522-45.748,45.748-45.748c25.225,0,45.747,20.522,45.747,45.748c0,4.142,3.357,7.5,7.5,7.5s7.5-3.358,7.5-7.5    c0-10.087-2.485-19.599-6.854-27.98c24.929,0.347,45.105,20.723,45.105,45.733V142h-2.857v-9.033    c0.065-0.397,0.107-0.802,0.107-1.217c0-33.498-27.252-60.75-60.75-60.75l-70.999,0.001    C187.003,71.001,159.752,98.253,159.752,131.751z M174.751,157h56.001l0.002,28c0,5.652-4.599,10.251-10.251,10.251h-35.502    c-5.652,0-10.25-4.599-10.25-10.251V157z M174.752,220.528v-12.459c3.135,1.399,6.602,2.183,10.25,2.183h35.502    c13.924,0,25.251-11.328,25.251-25.251l-0.001-28h20.497v28c0,13.923,11.327,25.251,25.25,25.251h35.5    c3.607,0,7.037-0.766,10.144-2.134v12.411c0,44.771-36.424,81.195-81.195,81.195S174.752,265.299,174.752,220.528z     M292.878,309.348v17.546c0,20.334-16.543,36.876-36.876,36.876s-36.876-16.542-36.876-36.876v-17.502    c11.348,4.72,23.785,7.332,36.822,7.332C269.026,316.724,281.501,314.096,292.878,309.348z M176.857,390.5l14.001-55.999h6.312    l16.8,55.998L176.857,390.5z M188.46,426.352l31.085-17.271l20.725,69.08L188.46,426.352z M231.219,395.799    c-0.005-0.017-0.01-0.034-0.015-0.051l-8.817-29.388c9.061,7.729,20.798,12.411,33.614,12.411c12.814,0,24.549-4.68,33.61-12.407    l-8.812,29.373c-0.002,0.005-0.004,0.01-0.005,0.014c-0.007,0.022-0.012,0.044-0.019,0.066L256.001,478.4L231.219,395.799z     M292.457,409.082l31.084,17.27l-51.807,51.807L292.457,409.082z M426,497H274.107l67.072-67.072    c1.664-1.664,2.45-4.013,2.124-6.343c-0.326-2.33-1.728-4.373-3.785-5.516L316.895,405.5l27.855,0.001    c2.31,0,4.49-1.064,5.911-2.884c1.422-1.82,1.925-4.194,1.365-6.435l-15.421-61.681h17.02c39.908,0,72.375,32.467,72.375,72.375    V497z" data-original="#000000" class="active-path" data-old_color="#000000" fill="#515151"/>
	</g>
</g><g>
	<g>
		<path d="M273.752,239.626H238.25c-4.143,0-7.5,3.358-7.5,7.5c0,4.142,3.357,7.5,7.5,7.5h35.502c4.143,0,7.5-3.358,7.5-7.5    C281.252,242.984,277.895,239.626,273.752,239.626z" data-original="#000000" class="active-path" data-old_color="#000000" fill="#515151"/>
	</g>
</g><g>
	<g>
		<path d="M398,443.749h-53.25c-4.143,0-7.5,3.358-7.5,7.5c0,4.142,3.357,7.5,7.5,7.5H398c4.143,0,7.5-3.358,7.5-7.5    C405.5,447.107,402.143,443.749,398,443.749z" data-original="#000000" class="active-path" data-old_color="#000000" fill="#515151"/>
	</g>
</g></g> </svg>
