<?xml version="1.0"?>
<svg xmlns="http://www.w3.org/2000/svg" xmlns:xlink="http://www.w3.org/1999/xlink" version="1.1" id="Capa_1" x="0px" y="0px" viewBox="0 0 512 512" style="enable-background:new 0 0 512 512;" xml:space="preserve" width="48px" height="48px"><g><g>
	<g>
		<path d="M500.527,470.715h-16.202v-21.566c0-9.675-7.871-17.546-17.546-17.546h-3.071l-10.362-20.206    c-2.015-3.929-4.834-7.245-8.188-9.824c3.211-3.583,5.563-8.004,6.708-12.988l2.671-11.632c0.534-2.327-0.021-4.769-1.508-6.636    s-3.744-2.955-6.13-2.955h-6.153l-6.146-20.195c-3.144-10.332-12.513-17.273-23.313-17.273h-0.392v-14.201    c0-4.329-3.509-7.837-7.837-7.837h-7.068c-2.79-11.144-9.144-36.673-15.849-64.65c-0.343-1.433-0.684-2.862-1.031-4.312    c-1.25-5.239-3.045-14.251-5.334-26.789c-5.49-30.055-30.793-52.203-60.965-54.02l-4.365-31.019    c-0.544-3.868-3.854-6.745-7.76-6.745h-20.375L272.107,7.269C271.809,3.172,268.399,0,264.291,0H247.71    c-4.109,0-7.519,3.172-7.816,7.269l-8.205,113.051h-20.375c-3.906,0-7.216,2.877-7.76,6.745l-4.365,31.019    c-30.171,1.818-55.475,23.965-60.965,54.02c-1.737,9.512-3.189,16.99-4.334,22.336c-0.009,0.041-0.026,0.079-0.036,0.121    c-0.347,1.626-0.675,3.091-0.975,4.353c-0.987,4.134-1.965,8.222-2.935,12.228c-0.006,0.025-0.007,0.05-0.014,0.076    c-5.969,24.753-11.401,46.568-13.922,56.638h-7.068c-4.328,0-7.837,3.508-7.837,7.837v14.201h-0.392    c-10.799,0-20.168,6.942-23.312,17.273l-6.146,20.195H65.1c-2.387,0-4.643,1.088-6.13,2.955c-1.487,1.866-2.042,4.309-1.508,6.636    l2.671,11.632c1.144,4.984,3.497,9.405,6.708,12.988c-3.353,2.579-6.172,5.896-8.188,9.824l-3.618,7.055    c-0.02,0.036-0.037,0.073-0.056,0.11l-6.687,13.041H45.22c-9.675,0-17.546,7.871-17.546,17.546v21.566H11.473    c-4.328,0-7.837,3.508-7.837,7.837v25.612c0,4.329,3.509,7.837,7.837,7.837h489.054c4.328,0,7.837-3.508,7.837-7.837v-25.612    C508.364,474.224,504.855,470.715,500.527,470.715z M364.113,243.571c0.024,0.102,0.049,0.203,0.073,0.305    c0.299,1.251,0.598,2.498,0.896,3.741c0.235,0.98,0.471,1.971,0.705,2.943l-0.341,0.34l-4.331-4.331L364.113,243.571z     M254.998,15.673h2.004l7.595,104.647h-17.194L254.998,15.673z M215.739,152.942h7.347c4.328,0,7.837-3.508,7.837-7.837    s-3.509-7.837-7.837-7.837h-5.142l0.18-1.275h20.853h34.046h20.854l3.09,21.955h-81.931L215.739,152.942z M147.886,243.568    l3.001,3.001l-4.33,4.331l-0.345-0.345C146.767,248.245,147.326,245.914,147.886,243.568z M141.92,268.29    c1.376,1.014,3.004,1.53,4.636,1.53c2.005,0,4.011-0.765,5.541-2.296l15.412-15.413c3.06-3.061,3.06-8.022,0-11.081    l-15.412-15.413c-0.123-0.123-0.256-0.236-0.387-0.35c0.601-3.144,1.243-6.588,1.93-10.343c0.008-0.045,0.019-0.089,0.027-0.134    l13.638,13.639c1.469,1.47,3.463,2.296,5.541,2.296s4.072-0.825,5.541-2.295l15.415-15.415c3.06-3.062,3.06-8.023,0-11.083    l-15.415-15.415c-1.469-1.469-3.463-2.295-5.541-2.295c-0.202,0-0.402,0.015-0.603,0.03c8.598-6.693,19.378-10.626,30.954-10.626    h2.817h99.965h2.817c11.688,0,22.563,4.011,31.201,10.823c-2.564-0.615-5.376,0.068-7.377,2.068l-15.415,15.415    c-3.06,3.062-3.06,8.023,0,11.083l15.415,15.415c1.53,1.53,3.536,2.295,5.541,2.295s4.011-0.765,5.541-2.295l14.457-14.457    c0.064,0.318,0.137,0.631,0.195,0.951c0.687,3.756,1.329,7.201,1.93,10.347c-0.13,0.113-0.26,0.224-0.383,0.346l-15.413,15.413    c-3.06,3.062-3.06,8.023,0,11.083l15.413,15.413c1.53,1.53,3.536,2.295,5.541,2.295c1.631,0,3.258-0.515,4.633-1.528    c4.01,16.469,7.539,30.684,9.755,39.565h-39.438c1.211-0.358,2.352-1.016,3.308-1.972l15.415-15.415    c3.06-3.062,3.06-8.023,0-11.083l-15.415-15.415c-3.061-3.059-8.023-3.059-11.082,0l-15.415,15.415    c-3.06,3.062-3.06,8.023,0,11.083l15.415,15.415c0.956,0.955,2.097,1.612,3.308,1.972h-50.65c1.243-0.367,2.39-1.038,3.323-1.972    l15.415-15.415c3.06-3.062,3.06-8.023,0-11.083l-15.415-15.416c-1.469-1.469-3.463-2.295-5.541-2.295    c-2.078,0-4.072,0.825-5.541,2.296l-15.414,15.415c-3.061,3.06-3.061,8.022,0,11.081l15.414,15.415    c0.933,0.934,2.079,1.605,3.323,1.973h-50.654c1.211-0.358,2.352-1.016,3.308-1.972l15.415-15.415    c3.061-3.062,3.061-8.023,0-11.083l-15.415-15.415c-3.061-3.059-8.023-3.059-11.082,0l-15.415,15.415    c-3.061,3.062-3.061,8.023,0,11.083l15.415,15.415c0.956,0.955,2.097,1.612,3.308,1.972h-50.654    c1.243-0.367,2.39-1.038,3.323-1.972l15.415-15.415c3.061-3.062,3.061-8.023,0-11.083l-15.415-15.415    c-1.469-1.469-3.463-2.295-5.541-2.295c-2.078,0-4.072,0.826-5.541,2.296l-15.414,15.415c-3.06,3.06-3.06,8.022,0,11.081    l15.414,15.415c0.933,0.934,2.079,1.605,3.323,1.973h-38.466C134.381,298.976,137.91,284.76,141.92,268.29z M168.516,207.471    l4.332-4.332l4.332,4.332l-4.332,4.332L168.516,207.471z M342.498,207.471l-4.332,4.332l-4.332-4.332l4.332-4.332L342.498,207.471    z M338.164,289.261l-4.332-4.332l4.332-4.332l4.332,4.332L338.164,289.261z M283.059,289.261l-4.332-4.332l4.332-4.332    l4.332,4.332L283.059,289.261z M227.954,289.261l-4.332-4.332l4.332-4.332l4.332,4.332L227.954,289.261z M172.848,289.261    l-4.332-4.332l4.332-4.332l4.332,4.332L172.848,289.261z M116.778,323.531h5.343H389.88h5.343v6.365H116.778V323.531z     M77.049,383.037c0.038,0,0.074,0,0.112,0h210.531c4.328,0,7.837-3.508,7.837-7.837c0-4.329-3.509-7.837-7.837-7.837H87.637    l4.758-15.632c1.121-3.686,4.464-6.163,8.317-6.163h8.229h294.118h8.229c3.854,0,7.196,2.476,8.317,6.163l4.757,15.632H319.391    c-4.328,0-7.837,3.508-7.837,7.837c0,4.329,3.509,7.837,7.837,7.837h115.522c0.008,0,0.017,0.002,0.025,0.002    c0.009,0,0.019-0.002,0.027-0.002h2.095l-0.468,2.041c-1.415,6.163-6.821,10.468-13.145,10.468H88.553    c-6.324,0-11.729-4.304-13.145-10.468l-0.468-2.041H77.049z M43.349,449.15c0-1.032,0.84-1.872,1.872-1.872h139.908    c4.328,0,7.837-3.508,7.837-7.837c0-4.329-3.509-7.837-7.837-7.837H65.907l0.795-1.551h42.239c4.328,0,7.837-3.508,7.837-7.837    c0-4.329-3.509-7.837-7.837-7.837H75.92c2.384-2.009,5.431-3.161,8.68-3.161h342.8c5.082,0,9.68,2.809,12,7.333l6.694,13.053    H217.906c-4.328,0-7.837,3.508-7.837,7.837c0,4.329,3.509,7.837,7.837,7.837h240.99c0.01,0,0.02,0.002,0.03,0.002    c0.011,0,0.023-0.002,0.036-0.002h7.818c1.032,0,1.872,0.84,1.872,1.872v3.419h-33.712c-4.328,0-7.837,3.508-7.837,7.837    c0,4.329,3.509,7.837,7.837,7.837h33.712v2.472H43.349V449.15z M19.31,496.327v-9.938h16.202h440.975h16.202v9.938H19.31z" data-original="#000000" class="active-path" data-old_color="#000000" fill="#519FFF"/>
	</g>
</g><g>
	<g>
		<path d="M248.91,201.929l-15.415-15.415c-3.061-3.059-8.023-3.059-11.082,0l-15.415,15.415c-3.061,3.062-3.061,8.023,0,11.083    l15.415,15.415c1.53,1.53,3.536,2.295,5.541,2.295c2.005,0,4.011-0.765,5.541-2.295l15.415-15.415    C251.971,209.95,251.971,204.989,248.91,201.929z M227.954,211.802l-4.332-4.332l4.332-4.332l4.332,4.332L227.954,211.802z" data-original="#000000" class="active-path" data-old_color="#000000" fill="#519FFF"/>
	</g>
</g><g>
	<g>
		<path d="M304.015,201.929l-15.414-15.415c-1.469-1.469-3.463-2.295-5.541-2.295c-2.078,0-4.072,0.826-5.541,2.296l-15.414,15.415    c-3.061,3.06-3.061,8.022,0,11.081l15.413,15.415c1.469,1.47,3.463,2.296,5.541,2.296s4.072-0.826,5.541-2.295l15.415-15.415    C307.076,209.95,307.076,204.989,304.015,201.929z M283.059,211.802l-4.332-4.332l4.332-4.332l4.332,4.332L283.059,211.802z" data-original="#000000" class="active-path" data-old_color="#000000" fill="#519FFF"/>
	</g>
</g><g>
	<g>
		<path d="M221.356,241.028l-15.414-15.414c-3.061-3.059-8.022-3.059-11.082,0l-15.415,15.414c-1.47,1.469-2.296,3.463-2.296,5.542    s0.825,4.071,2.296,5.542l15.415,15.415c1.469,1.469,3.463,2.295,5.541,2.295s4.072-0.826,5.541-2.296l15.414-15.415    c1.47-1.469,2.296-3.462,2.296-5.541S222.827,242.499,221.356,241.028z M200.402,250.903l-4.332-4.332l4.332-4.332l4.332,4.332    L200.402,250.903z" data-original="#000000" class="active-path" data-old_color="#000000" fill="#519FFF"/>
	</g>
</g><g>
	<g>
		<path d="M276.463,241.029l-15.415-15.414c-3.061-3.06-8.023-3.06-11.082,0l-15.415,15.414c-1.47,1.469-2.296,3.463-2.296,5.542    s0.825,4.071,2.296,5.542l15.415,15.415c1.53,1.53,3.536,2.295,5.541,2.295c2.005,0,4.011-0.765,5.541-2.295l15.415-15.415    c1.47-1.47,2.296-3.463,2.296-5.542C278.759,244.491,277.933,242.499,276.463,241.029z M255.507,250.903l-4.332-4.332l4.332-4.332    l4.332,4.332L255.507,250.903z" data-original="#000000" class="active-path" data-old_color="#000000" fill="#519FFF"/>
	</g>
</g><g>
	<g>
		<path d="M331.567,241.029l-15.414-15.414c-3.06-3.059-8.022-3.059-11.082,0l-15.415,15.414c-1.47,1.469-2.296,3.463-2.296,5.542    s0.826,4.071,2.296,5.542l15.415,15.415c1.469,1.469,3.463,2.295,5.541,2.295c2.078,0,4.072-0.825,5.541-2.296l15.414-15.415    c1.47-1.469,2.296-3.462,2.296-5.541S333.037,242.5,331.567,241.029z M310.613,250.903l-4.332-4.332l4.332-4.332l4.332,4.332    L310.613,250.903z" data-original="#000000" class="active-path" data-old_color="#000000" fill="#519FFF"/>
	</g>
</g><g>
	<g>
		<path d="M406.646,452.569h-7.174c-4.328,0-7.837,3.508-7.837,7.837c0,4.329,3.509,7.837,7.837,7.837h7.174    c4.328,0,7.837-3.508,7.837-7.837C414.483,456.077,410.974,452.569,406.646,452.569z" data-original="#000000" class="active-path" data-old_color="#000000" fill="#519FFF"/>
	</g>
</g><g>
	<g>
		<path d="M316.473,414.379h-12.669c-4.328,0-7.837,3.508-7.837,7.837c0,4.329,3.508,7.837,7.837,7.837h12.669    c4.328,0,7.837-3.508,7.837-7.837C324.31,417.887,320.801,414.379,316.473,414.379z" data-original="#000000" class="active-path" data-old_color="#000000" fill="#519FFF"/>
	</g>
</g></g> </svg>
